<?xml version="1.0" standalone="no"?>
<!DOCTYPE svg PUBLIC "-//W3C//DTD SVG 20010904//EN"
 "http://www.w3.org/TR/2001/REC-SVG-20010904/DTD/svg10.dtd">
<svg version="1.0" xmlns="http://www.w3.org/2000/svg"
 width="924.000000pt" height="831.000000pt" viewBox="0 0 924.000000 831.000000"
 preserveAspectRatio="xMidYMid meet">

<g transform="translate(0.000000,831.000000) scale(0.100000,-0.100000)"
fill="#000000" stroke="none">
<path d="M4405 7664 c-292 -28 -406 -46 -599 -95 -963 -243 -1751 -877 -2195
-1767 -329 -659 -431 -1427 -285 -2152 266 -1322 1297 -2359 2617 -2631 240
-49 387 -63 667 -63 327 -1 541 24 825 95 940 237 1736 869 2173 1726 236 464
352 916 369 1443 29 911 -328 1810 -976 2459 -535 535 -1210 867 -1971 966
-118 15 -533 28 -625 19z m508 -1972 c-15 -21 -104 -138 -198 -260 l-169 -222
-701 0 c-410 0 -725 -4 -760 -10 -73 -12 -106 -35 -124 -87 -20 -57 0 -119 49
-148 34 -19 53 -20 720 -26 659 -5 689 -6 789 -28 119 -25 201 -56 263 -99 24
-17 211 -181 416 -365 l374 -336 335 302 c512 461 527 473 591 498 46 17 73
20 138 17 138 -7 225 -65 283 -188 l26 -55 3 -527 3 -528 -257 -332 c-141
-183 -267 -343 -278 -356 l-21 -24 -5 576 -5 576 -330 -296 c-181 -163 -365
-328 -407 -366 l-76 -69 -352 316 c-193 174 -355 315 -358 313 -4 -2 -31 -21
-59 -43 l-52 -40 0 -487 -1 -488 -280 0 -280 0 0 415 0 415 -950 2 -949 3 195
253 195 252 787 0 c515 0 800 4 824 11 67 18 91 47 96 116 5 75 -15 118 -66
141 -33 15 -112 18 -737 23 -681 5 -702 6 -780 27 -215 59 -351 169 -415 337
-31 81 -39 260 -16 358 30 129 101 240 196 306 115 81 255 129 435 149 44 5
498 10 1008 11 l929 1 -29 -38z"/>
</g>
</svg>
